#!OML:ASF E:\id_vita\Project 1\Capture day 1\Session 1\Male1.ASF
:FULLY-SPECIFIED
:DEGREES
709
root -23.7949 14.6748 -3.78563 543.768 -33.7001 -535.363
lowerback 5.54973 -3.35216 -8.22391
upperback 3.76372 -5.12589 -3.26305
thorax 1.20814 -2.81033 1.41084
lowerneck -4.46598 -0.937599 1.25609
upperneck -24.4115 -3.01351 4.41867
head -6.66145 -2.92355 1.46589
rclavicle 8.74653e-014 -6.36111e-014
rhumerus -29.2866 4.36334 -93.7154
rradius 33.085
rwrist 2.61125
rhand -19.369 36.1043
rfingers 7.12502
rthumb 6.94893 6.23833
lclavicle 8.74653e-014 -6.36111e-014
lhumerus -15.7427 20.2649 75.2384
lradius 17.0271
lwrist -11.7788
lhand -11.5002 46.9753
lfingers 7.12502
lthumb 14.5385 76.4459
rfemur -38.3314 -4.51187 30.7625
rtibia 56.4115
rfoot -23.378 -1.12723
rtoes 19.3259
lfemur -11.7848 14.5284 -17.1207
ltibia 51.9277
lfoot -40.9979 -8.72871
ltoes 35.4324
710
root -23.796 14.679 -3.79398 543.697 -33.7526 -535.374
lowerback 5.58907 -3.38032 -8.32266
upperback 3.79893 -5.16944 -3.21073
thorax 1.24107 -2.83646 1.52004
lowerneck -4.44224 -0.917442 1.18421
upperneck -24.458 -2.99393 4.3993
head -6.68007 -2.90941 1.47287
rclavicle 8.11041e-014 5.08889e-014
rhumerus -29.2676 4.68789 -93.7072
rradius 33.0236
rwrist 2.40905
rhand -19.4863 36.1509
rfingers 7.12502
rthumb 6.83575 6.28129
lclavicle 8.11041e-014 5.08889e-014
lhumerus -15.7966 20.4633 75.2498
lradius 17.0726
lwrist -11.8734
lhand -11.8158 47.2924
lfingers 7.12502
lthumb 14.2345 76.7846
rfemur -38.1879 -4.39414 30.7005
rtibia 56.3596
rfoot -23.3711 -0.840556
rtoes 21.4323
lfemur -11.6701 14.5839 -17.0525
ltibia 51.9118
lfoot -40.9569 -8.75852
ltoes 35.3807
711
root -23.8002 14.678 -3.80147 543.39 -33.8425 -534.984
lowerback 5.61163 -3.36968 -7.94777
upperback 3.85742 -5.13496 -3.19796
thorax 1.25253 -2.81311 1.32801
lowerneck -4.36081 -0.957237 1.3006
upperneck -24.5649 -3.03927 4.48073
head -6.72893 -2.95448 1.48628
rclavicle 1.36764e-013 -1.59028e-014
rhumerus -29.292 4.38671 -93.7481
rradius 33.0261
rwrist 2.55347
rhand -19.5875 36.1774
rfingers 7.12502
rthumb 6.73807 6.30462
lclavicle 1.36764e-013 -1.59028e-014
lhumerus -15.7986 20.4089 75.1672
lradius 17.1245
lwrist -11.989
lhand -12.2537 48.0687
lfingers 7.12502
lthumb 13.8126 77.5902
rfemur -38.0318 -4.39373 31.0988
rtibia 56.3848
rfoot -23.4399 -1.69711
rtoes 18.7312
lfemur -11.5204 14.7201 -16.5941
ltibia 51.8491
lfoot -40.8256 -8.87368
ltoes 35.3597
712
root -23.8071 14.6795 -3.802 543.626 -33.9288 -535.283
lowerback 5.51225 -3.41369 -8.1056
upperback 3.88283 -5.19716 -3.30836
thorax 1.34361 -2.85293 1.29251
lowerneck -4.35899 -0.962219 1.26781
upperneck -24.6491 -3.04002 4.59897
head -6.75421 -2.96957 1.53326
rclavicle 4.6118e-014 -9.54166e-015
rhumerus -29.1848 4.12097 -93.7747
rradius 32.98
rwrist 2.78104
rhand -19.5819 36.0695
rfingers 7.12502
rthumb 6.7434 6.1969
lclavicle 4.6118e-014 -9.54166e-015
lhumerus -15.7442 20.4559 75.0916
lradius 17.1161
lwrist -12.0197
lhand -12.4291 48.3081
lfingers 7.12502
lthumb 13.6435 77.8409
rfemur -38.1705 -4.42955 30.7826
rtibia 56.521
rfoot -23.5606 -1.42305
rtoes 19.6211
lfemur -11.5142 14.7344 -16.8901
ltibia 51.7127
lfoot -40.692 -8.84308
ltoes 35.4157
713
root -23.8144 14.684 -3.79974 544.458 -33.9777 -536.272
lowerback 5.26198 -3.47375 -8.89849
upperback 3.82179 -5.30147 -3.47919
thorax 1.48776 -2.92806 1.53069
lowerneck -4.309 -0.881571 1.15238
upperneck -24.7384 -2.94093 4.55581
head -6.79239 -2.9134 1.5384
rclavicle -6.20208e-014 -6.36111e-015
rhumerus -29.0353 4.48814 -93.797
rradius 32.822
rwrist 2.54594
rhand -19.6496 36.0778
rfingers 7.12502
rthumb 6.67805 6.20308
lclavicle -6.20208e-014 -6.36111e-015
lhumerus -15.7392 21.119 75.0497
lradius 17.1623
lwrist -12.5281
lhand -12.352 48.1693
lfingers 7.12502
lthumb 13.7178 77.6972
rfemur -38.5985 -4.581 29.8864
rtibia 56.6913
rfoot -23.6193 -1.23087
rtoes 19.9284
lfemur -11.7735 14.597 -17.9273
ltibia 51.57
lfoot -40.5738 -8.83562
ltoes 35.8532
714
root -23.8196 14.6903 -3.80248 544.984 -33.9521 -536.863
lowerback 5.06494 -3.47147 -9.37856
upperback 3.76117 -5.30879 -3.61238
thorax 1.56833 -2.94533 1.63997
lowerneck -4.16109 -0.7867 1.24501
upperneck -24.8096 -2.80679 4.47723
head -6.84609 -2.85046 1.49594
rclavicle 5.56597e-015 2.54444e-014
rhumerus -29.006 4.99349 -93.9082
rradius 32.6528
rwrist 2.00599
rhand -19.6372 36.1581
rfingers 7.12502
rthumb 6.69009 6.28377
lclavicle 5.56597e-015 2.54444e-014
lhumerus -15.8121 21.591 74.9495
lradius 17.2949
lwrist -13.0059
lhand -12.1224 48.2891
lfingers 7.12502
lthumb 13.939 77.8019
rfemur -38.8839 -4.64205 29.3385
rtibia 56.8075
rfoot -23.6649 -0.858905
rtoes 21.0815
lfemur -11.9166 14.5808 -18.535
ltibia 51.4175
lfoot -40.4231 -8.9558
ltoes 36.1385
715
root -23.8244 14.6897 -3.81027 544.86 -33.9371 -536.739
lowerback 5.03717 -3.43806 -9.27725
upperback 3.77403 -5.25158 -3.56409
thorax 1.58676 -2.91466 1.63142
lowerneck -4.03576 -0.820066 1.14497
upperneck -24.8407 -2.84349 4.4553
head -6.87555 -2.85402 1.50994
rclavicle -3.97569e-014 6.36111e-014
rhumerus -29.078 5.1391 -93.8481
rradius 32.5898
rwrist 1.75532
rhand -19.5281 36.1097
rfingers 7.12502
rthumb 6.79542 6.2387
lclavicle -3.97569e-014 6.36111e-014
lhumerus -15.8024 21.0293 75.0627
lradius 17.2224
lwrist -12.491
lhand -12.0381 48.0549
lfingers 7.12502
lthumb 14.0203 77.5621
rfemur -38.7836 -4.68352 29.4578
rtibia 56.802
rfoot -23.6693 -0.865914
rtoes 20.7984
lfemur -11.7677 14.6957 -18.3727
ltibia 51.3428
lfoot -40.39 -9.03115
ltoes 35.8845
